<svg width="512" height="512" viewBox="0 0 512 512" fill="none" xmlns="http://www.w3.org/2000/svg">
  <defs>
    <!-- Main gradient - electric blue to violet -->
    <linearGradient id="mainGrad" x1="0%" y1="0%" x2="100%" y2="100%">
      <stop offset="0%" stop-color="#3B82F6"/>
      <stop offset="50%" stop-color="#8B5CF6"/>
      <stop offset="100%" stop-color="#EC4899"/>
    </linearGradient>
    <!-- Glow effect -->
    <filter id="glow" x="-50%" y="-50%" width="200%" height="200%">
      <feGaussianBlur stdDeviation="8" result="blur"/>
      <feMerge>
        <feMergeNode in="blur"/>
        <feMergeNode in="SourceGraphic"/>
      </feMerge>
    </filter>
    <!-- Subtle inner shadow -->
    <filter id="inner">
      <feOffset dx="2" dy="2"/>
      <feGaussianBlur stdDeviation="2"/>
      <feComposite in2="SourceAlpha" operator="arithmetic" k2="-1" k3="1"/>
      <feColorMatrix type="matrix" values="0 0 0 0 0  0 0 0 0 0  0 0 0 0 0  0 0 0 0.3 0"/>
      <feBlend in2="SourceGraphic"/>
    </filter>
  </defs>

  <!-- Background circle with subtle gradient -->
  <circle cx="256" cy="256" r="240" fill="#0a0a0a"/>
  <circle cx="256" cy="256" r="236" fill="none" stroke="url(#mainGrad)" stroke-width="3" opacity="0.6"/>

  <!-- The "R" letterform - bold, geometric, modern -->
  <g filter="url(#inner)">
    <!-- Main stem of R -->
    <rect x="120" y="100" width="56" height="312" rx="8" fill="url(#mainGrad)"/>

    <!-- Bowl of R (top curve) -->
    <path d="M176 100
             H280
             C340 100 380 140 380 200
             C380 260 340 300 280 300
             H176
             V244
             H270
             C305 244 324 225 324 200
             C324 175 305 156 270 156
             H176
             Z"
          fill="url(#mainGrad)"/>

    <!-- Leg of R (diagonal) -->
    <path d="M250 280
             L392 412
             L348 412
             L220 296
             Z"
          fill="url(#mainGrad)"/>
  </g>

  <!-- AI accent dot - the "intelligence" spark -->
  <circle cx="400" cy="112" r="24" fill="url(#mainGrad)" filter="url(#glow)"/>

  <!-- Subtle orbital ring suggesting AI/tech -->
  <ellipse cx="256" cy="256" rx="200" ry="60" fill="none" stroke="url(#mainGrad)" stroke-width="2" opacity="0.2" transform="rotate(-20 256 256)"/>
</svg>
